<?xml version="1.0" encoding="UTF-8" standalone="no"?>
<!-- Created with Inkscape (http://www.inkscape.org/) -->

<svg
   xmlns:dc="http://purl.org/dc/elements/1.1/"
   xmlns:cc="http://creativecommons.org/ns#"
   xmlns:rdf="http://www.w3.org/1999/02/22-rdf-syntax-ns#"
   xmlns:svg="http://www.w3.org/2000/svg"
   xmlns="http://www.w3.org/2000/svg"
   xmlns:xlink="http://www.w3.org/1999/xlink"
   xmlns:sodipodi="http://sodipodi.sourceforge.net/DTD/sodipodi-0.dtd"
   xmlns:inkscape="http://www.inkscape.org/namespaces/inkscape"
   width="744.09448819"
   height="1052.3622047"
   id="svg3258"
   version="1.1"
   inkscape:version="0.47pre4 "
   sodipodi:docname="octane logo.svg">
  <defs
     id="defs3260">
    <inkscape:perspective
       sodipodi:type="inkscape:persp3d"
       inkscape:vp_x="0 : 526.18109 : 1"
       inkscape:vp_y="0 : 1000 : 0"
       inkscape:vp_z="744.09448 : 526.18109 : 1"
       inkscape:persp3d-origin="372.04724 : 350.78739 : 1"
       id="perspective3266" />
    <inkscape:perspective
       id="perspective3230"
       inkscape:persp3d-origin="0.5 : 0.33333333 : 1"
       inkscape:vp_z="1 : 0.5 : 1"
       inkscape:vp_y="0 : 1000 : 0"
       inkscape:vp_x="0 : 0.5 : 1"
       sodipodi:type="inkscape:persp3d" />
    <radialGradient
       inkscape:collect="always"
       xlink:href="#linearGradient4051-0"
       id="radialGradient4061-4"
       cx="457.42041"
       cy="-93.583611"
       fx="457.42041"
       fy="-93.583611"
       r="32.436394"
       gradientTransform="matrix(1.0787635,1.0515711,-3.8182065,3.9169433,-893.4691,106.66359)"
       gradientUnits="userSpaceOnUse" />
    <linearGradient
       inkscape:collect="always"
       id="linearGradient4051-0">
      <stop
         style="stop-color:#000000;stop-opacity:1;"
         offset="0"
         id="stop4053-9" />
      <stop
         style="stop-color:#ffffff;stop-opacity:1"
         offset="1"
         id="stop4055-4" />
    </linearGradient>
    <linearGradient
       inkscape:collect="always"
       xlink:href="#linearGradient4043-8"
       id="linearGradient4404"
       x1="682.22455"
       y1="-136.15733"
       x2="718.82306"
       y2="-77.301971"
       gradientUnits="userSpaceOnUse"
       gradientTransform="translate(-610.55548,232.58278)" />
    <linearGradient
       inkscape:collect="always"
       id="linearGradient4043-8">
      <stop
         style="stop-color:#ffffff;stop-opacity:1;"
         offset="0"
         id="stop4045-2" />
      <stop
         style="stop-color:#ffffff;stop-opacity:0;"
         offset="1"
         id="stop4047-4" />
    </linearGradient>
    <inkscape:perspective
       id="perspective4198"
       inkscape:persp3d-origin="0.5 : 0.33333333 : 1"
       inkscape:vp_z="1 : 0.5 : 1"
       inkscape:vp_y="0 : 1000 : 0"
       inkscape:vp_x="0 : 0.5 : 1"
       sodipodi:type="inkscape:persp3d" />
    <radialGradient
       inkscape:collect="always"
       xlink:href="#linearGradient4051-7"
       id="radialGradient4156-1"
       gradientUnits="userSpaceOnUse"
       gradientTransform="matrix(1.9803769,-2.3258117,0.9767613,0.83167823,256.08033,94.161062)"
       cx="24.662821"
       cy="-37.800442"
       fx="24.662821"
       fy="-37.800442"
       r="49.5" />
    <linearGradient
       inkscape:collect="always"
       id="linearGradient4051-7">
      <stop
         style="stop-color:#000000;stop-opacity:1;"
         offset="0"
         id="stop4053-4" />
      <stop
         style="stop-color:#ffffff;stop-opacity:1"
         offset="1"
         id="stop4055-0" />
    </linearGradient>
    <radialGradient
       inkscape:collect="always"
       xlink:href="#linearGradient4051-0"
       id="radialGradient4235"
       gradientUnits="userSpaceOnUse"
       gradientTransform="matrix(1.994488,1.9442129,-7.059348,7.241899,-1626.3436,386.04715)"
       cx="457.42041"
       cy="-93.583611"
       fx="457.42041"
       fy="-93.583611"
       r="32.436394" />
    <linearGradient
       inkscape:collect="always"
       xlink:href="#linearGradient4043-8"
       id="linearGradient4237"
       gradientUnits="userSpaceOnUse"
       gradientTransform="matrix(1.8488649,0,0,1.8488649,-1103.2746,618.85472)"
       x1="681.72455"
       y1="-134.15733"
       x2="718.82306"
       y2="-77.301971" />
    <inkscape:perspective
       id="perspective4270"
       inkscape:persp3d-origin="0.5 : 0.33333333 : 1"
       inkscape:vp_z="1 : 0.5 : 1"
       inkscape:vp_y="0 : 1000 : 0"
       inkscape:vp_x="0 : 0.5 : 1"
       sodipodi:type="inkscape:persp3d" />
    <inkscape:perspective
       id="perspective4320"
       inkscape:persp3d-origin="0.5 : 0.33333333 : 1"
       inkscape:vp_z="1 : 0.5 : 1"
       inkscape:vp_y="0 : 1000 : 0"
       inkscape:vp_x="0 : 0.5 : 1"
       sodipodi:type="inkscape:persp3d" />
    <inkscape:perspective
       id="perspective4345"
       inkscape:persp3d-origin="0.5 : 0.33333333 : 1"
       inkscape:vp_z="1 : 0.5 : 1"
       inkscape:vp_y="0 : 1000 : 0"
       inkscape:vp_x="0 : 0.5 : 1"
       sodipodi:type="inkscape:persp3d" />
    <radialGradient
       inkscape:collect="always"
       xlink:href="#linearGradient4051-0"
       id="radialGradient4367"
       gradientUnits="userSpaceOnUse"
       gradientTransform="matrix(1.994488,1.9442129,-7.059348,7.241899,-1626.3436,386.04715)"
       cx="457.42041"
       cy="-93.583611"
       fx="457.42041"
       fy="-93.583611"
       r="32.436394" />
    <linearGradient
       inkscape:collect="always"
       xlink:href="#linearGradient4043-8"
       id="linearGradient4369"
       gradientUnits="userSpaceOnUse"
       gradientTransform="matrix(1.8488649,0,0,1.8488649,-1103.2746,618.85472)"
       x1="681.72455"
       y1="-134.15733"
       x2="718.82306"
       y2="-77.301971" />
  </defs>
  <sodipodi:namedview
     id="base"
     pagecolor="#ffffff"
     bordercolor="#666666"
     borderopacity="1.0"
     inkscape:pageopacity="0.0"
     inkscape:pageshadow="2"
     inkscape:zoom="0.5"
     inkscape:cx="221.21054"
     inkscape:cy="685.28148"
     inkscape:document-units="px"
     inkscape:current-layer="layer1"
     showgrid="false"
     showguides="true"
     inkscape:guide-bbox="true"
     inkscape:snap-global="true"
     inkscape:window-width="1680"
     inkscape:window-height="1031"
     inkscape:window-x="-4"
     inkscape:window-y="-4"
     inkscape:window-maximized="1"
     inkscape:snap-page="true">
    <inkscape:grid
       type="xygrid"
       id="grid3323" />
  </sodipodi:namedview>
  <metadata
     id="metadata3263">
    <rdf:RDF>
      <cc:Work
         rdf:about="">
        <dc:format>image/svg+xml</dc:format>
        <dc:type
           rdf:resource="http://purl.org/dc/dcmitype/StillImage" />
        <dc:title></dc:title>
      </cc:Work>
    </rdf:RDF>
  </metadata>
  <g
     inkscape:label="Layer 1"
     inkscape:groupmode="layer"
     id="layer1">
    <rect
       style="color:#000000;fill:#000000;fill-opacity:1;fill-rule:nonzero;stroke:none;stroke-width:1;marker:none;visibility:visible;display:inline;overflow:visible;enable-background:accumulate"
       id="rect3319"
       width="744.09448"
       height="237.18971"
       x="0"
       y="0"
       rx="1.7499999"
       ry="1.75" />
    <g
       id="g4239"
       transform="translate(0,-108.89444)">
      <path
         id="path4226"
         d="m 169.12653,414.9594 c -17.66973,19.84435 -24.42202,30.54014 -25.82633,46.56827 -0.0797,-0.0403 -0.14939,-0.0719 -0.23111,-0.11556 -6.49445,-3.72391 -11.68872,-11.28146 -14.79091,-19.00864 l -11.38208,4.44883 c 8.34282,25.2004 14.29208,36.30322 27.44409,45.5283 -0.0845,0.0557 -0.14162,0.11759 -0.23111,0.17324 -6.47223,3.7624 -15.61888,4.52807 -23.86191,3.35107 l -1.84887,12.07539 c 26.04716,5.38577 38.66855,5.8375 53.27042,-0.9822 0.006,0.10131 -0.004,0.18303 0,0.28888 0.0222,7.48631 -3.93015,15.75176 -9.07099,22.30193 l 9.53321,7.62657 c 17.64876,-19.82077 24.35332,-30.51407 25.76857,-46.51051 0.0817,0.0412 0.14717,0.0708 0.23111,0.11556 6.49445,3.72391 11.68873,11.28146 14.79092,19.00864 l 11.38207,-4.44883 c -8.34481,-25.20645 -14.28544,-36.3597 -27.44408,-45.58608 0.0856,-0.0566 0.14032,-0.11685 0.2311,-0.17324 6.47223,-3.7624 15.61888,-4.47029 23.86192,-3.29329 l 1.84886,-12.13317 c -26.0131,-5.37872 -38.63503,-5.80958 -53.21266,0.98221 -0.006,-0.0969 0.004,-0.18794 0,-0.28889 -0.0222,-7.48631 3.93015,-15.75174 9.07101,-22.30191 l -9.53323,-7.62657 z m 0.98221,44.95051 c 8.92834,-0.29403 16.40356,6.72926 16.69758,15.65757 0.29403,8.92832 -6.72925,16.40354 -15.65759,16.69757 -8.92832,0.29402 -16.40354,-6.72926 -16.69756,-15.65758 -0.29403,-8.92832 6.72926,-16.40354 15.65757,-16.69756 z"
         style="font-size:161.45248413px;fill:#000000;stroke:none;display:inline;font-family:Lacuna Regular;-inkscape-font-specification:Lacuna Regular" />
      <path
         style="font-size:29.42038345px;fill:#000000;fill-opacity:1;stroke:none;font-family:Lacuna Regular;-inkscape-font-specification:Lacuna Regular"
         d="m 305.28684,450.4547 0,0.98221 0,6.75991 -3.58217,-0.0577 -0.98221,0 0,0.98221 0,4.15995 0,0.9822 0.98221,0 3.58217,0 0,18.31532 c 0,3.65279 1.37745,6.63356 3.98662,8.66656 l 0,0.0577 c 2.25454,1.77693 5.15502,2.65774 8.60878,2.65774 l 0.98221,0 0,-0.9822 0,-4.50661 0,-0.98221 -0.98221,0 c -1.89115,2e-5 -3.13734,-0.46281 -3.98662,-1.32887 -0.89664,-0.9143 -1.32887,-1.99946 -1.32887,-3.46663 l 0,-18.43087 5.31549,0 0.98221,0 0,-0.98221 0,-4.15994 0,-0.98221 -0.98221,0 -5.31549,0 0,-6.70214 0,-0.98221 -0.98221,0 -5.31549,0 -0.98221,0 z m 103.94088,7.10658 c -4.09583,3e-5 -7.61642,1.52431 -10.22654,4.44883 -2.97462,3.335 -4.39107,8.04583 -4.39105,14.03982 -2e-5,5.92725 1.59091,10.60547 4.79549,13.80871 2.78961,2.78966 6.44681,4.15994 10.80431,4.15994 4.26355,0 8.14534,-1.79979 11.43985,-5.31548 l 0.69332,-0.69333 -0.69332,-0.69332 -3.06218,-3.06219 -0.7511,-0.7511 -0.69333,0.80888 c -1.85698,2.20522 -4.06338,3.23551 -6.87547,3.23551 -2.37042,0 -4.12335,-0.7782 -5.54659,-2.42663 -1.36956,-1.63651 -2.07685,-4.09167 -2.2533,-7.22213 l 19.06642,0 0.9822,0 0,-0.98221 0,-2.71552 c -1e-5,-5.28241 -1.29078,-9.50416 -3.87106,-12.53761 -2.39718,-2.71469 -5.62005,-4.10214 -9.41765,-4.10217 z m -155.1891,0.0577 c -4.28907,4e-5 -7.80875,1.48384 -10.34209,4.33328 -2.8579,3.22052 -4.21772,7.89565 -4.21772,13.92426 0,5.98868 1.35551,10.62909 4.21772,13.80871 2.49871,2.86199 6.02213,4.2755 10.34209,4.2755 4.13713,0 7.6293,-1.35718 10.16876,-4.10217 l 0,-0.0577 c 2.93071,-3.1787 4.39103,-7.87226 4.39105,-13.92427 -2e-5,-6.07341 -1.3858,-10.76191 -4.33328,-13.98204 -2.53569,-2.80652 -6.05882,-4.27546 -10.22653,-4.2755 z m 33.10624,0 c -4.25274,4e-5 -7.71907,1.48884 -10.16876,4.39106 -2.72245,3.221 -4.04439,7.89957 -4.04439,13.92426 0,5.98866 1.35551,10.62911 4.21772,13.80871 2.48989,2.85193 5.91341,4.2755 9.99543,4.2755 4.27206,0 7.93655,-1.64327 10.74653,-4.85327 l 0.57777,-0.69333 -0.63555,-0.63554 -3.06218,-3.06219 -0.75111,-0.7511 -0.69332,0.80888 c -1.59662,1.9772 -3.56764,2.88885 -6.18214,2.88885 -2.24415,0 -3.73787,-0.83644 -4.85327,-2.71552 -1.1154,-1.87907 -1.73331,-4.90509 -1.73331,-9.07099 0,-4.20852 0.61476,-7.27299 1.73331,-9.18655 1.11854,-1.91354 2.61496,-2.77328 4.85327,-2.7733 1.96641,4e-5 3.6734,0.74735 5.19993,2.31109 l 0.69332,0.69332 0.69333,-0.69332 3.06218,-3.06219 0.63555,-0.63554 -0.57777,-0.69333 c -2.51862,-2.78757 -5.85419,-4.27546 -9.70654,-4.2755 z m 50.5549,0 c -3.58517,4e-5 -6.91775,0.78714 -9.99543,2.36886 l -0.80888,0.40444 0.34667,0.86665 1.73331,4.15995 0.46221,1.09776 0.98221,-0.69332 c 1.83776,-1.22437 4.10322,-1.84883 6.75991,-1.84887 1.8825,2e-5 3.07742,0.47685 3.87107,1.32888 0.7936,0.85203 1.27109,2.20691 1.27109,4.21772 l 0,3.0044 c -1.7295,-0.55183 -3.58765,-0.98219 -6.12437,-0.9822 -3.41496,10e-6 -6.39441,0.98666 -8.83988,2.88885 -2.73168,2.09395 -4.15996,5.00909 -4.15995,8.49322 -1e-5,3.6156 1.22044,6.53686 3.63996,8.49322 2.18532,1.76556 5.08118,2.59997 8.551,2.59997 2.92928,0 5.34817,-0.97798 7.39546,-2.54219 0.17102,0.55438 0.2657,1.21127 0.57777,1.61776 l 0.28888,0.40444 0.46222,0 5.54659,0 1.38665,0 -0.46222,-1.32888 c -0.23353,-0.67853 -0.43853,-1.17129 -0.57777,-1.55998 -0.12738,-0.35577 -0.17878,-0.61439 -0.17323,-0.57777 -0.001,-0.009 10e-4,-0.0494 0,-0.0577 -0.10114,-0.69824 -0.17361,-2.3329 -0.17324,-4.85327 l 0,-15.36869 c -2e-5,-3.87875 -0.94379,-6.97947 -3.00441,-9.07099 -2.06078,-2.09162 -5.13541,-3.06226 -8.95562,-3.06228 z m 37.7284,0 c -3.07333,4e-5 -5.88646,1.2113 -8.43545,3.06218 l 0,-1.5022 0,-0.98221 -0.98221,0 -5.31549,0 -0.9822,0 0,0.98221 0,33.33735 0,0.98221 0.9822,0 5.31549,0 0.98221,0 0,-0.98221 0,-24.38191 c 2.55131,-2.63184 5.18686,-3.92884 7.97323,-3.92884 2.20002,0 3.44503,0.57099 4.15995,1.67554 0.58095,0.903 0.98219,2.65199 0.98221,5.19993 l 0,21.43528 0,0.98221 0.98221,0 5.37326,0 0.98221,0 0,-0.98221 0,-21.43528 c -4e-5,-5.06632 -1.17383,-8.83606 -3.75551,-11.03541 -1.92981,-1.68835 -4.7207,-2.4266 -8.26211,-2.42664 z m -121.38954,6.24001 c 2.40031,0 4.01252,0.85305 5.19993,2.7733 1.18742,1.92025 1.84887,5.02057 1.84887,9.24432 0,4.18114 -0.66461,7.24277 -1.84887,9.12878 -1.18425,1.88599 -2.79408,2.71552 -5.19993,2.71552 -2.42835,0 -4.02104,-0.83081 -5.19993,-2.71552 -1.17889,-1.88472 -1.84887,-4.94605 -1.84887,-9.12878 0,-4.22534 0.66676,-7.32535 1.84887,-9.24432 1.18209,-1.91897 2.77705,-2.7733 5.19993,-2.7733 z m 155.1891,0.11556 c 1.97714,3e-5 3.21952,0.64544 4.10217,2.02219 0.76876,1.1992 1.22071,3.51506 1.5022,6.18214 l -12.24873,0 c 0.33805,-2.67109 0.97592,-4.77521 1.96442,-6.06658 1.12718,-1.47257 2.58852,-2.13773 4.67994,-2.13775 z m -72.10573,13.75093 c 2.25587,0 3.86605,0.34411 5.19993,0.86666 l 0,6.29769 c -1.91742,1.92154 -3.9044,2.88885 -6.06659,2.88885 -2.00151,0 -3.33794,-0.45088 -4.15994,-1.15554 -0.82201,-0.70464 -1.2711,-1.71484 -1.2711,-3.35107 0,-2.00032 0.52848,-3.29035 1.5022,-4.15994 0.97375,-0.86962 2.52722,-1.38665 4.7955,-1.38665 z"
         id="path4134" />
      <path
         sodipodi:nodetypes="ccccscscsccccccccssssccscccccccccssssccscccccccccccccccccccscccccccccccccccsscccccccccccccccccsccccccccccccsccccccccccsccccccccccssssccc"
         style="font-size:29.42038345px;fill:#000000;stroke:none;font-family:Lacuna Regular;-inkscape-font-specification:Lacuna Regular"
         d="m 547.89259,441.96148 0,19.81752 0,2.31108 -1.67554,-1.61776 c -1.94567,-1.90719 -4.54236,-2.88881 -7.91545,-2.88885 -2.91947,4e-5 -5.27213,1.14441 -7.39546,3.58218 -2.50333,2.89355 -3.81328,6.92185 -3.81328,12.30651 0,5.98705 1.34381,10.33872 3.81328,13.11538 2.01066,2.28222 4.48505,3.35107 7.74212,3.35107 3.4826,0 5.94619,-0.90421 7.56879,-2.59997 l 1.67554,-1.73331 0,2.42664 0,1.5022 3.35106,0 0,-49.57269 -3.35106,0 z m -79.03898,17.56422 c -3.6305,3e-5 -6.46128,1.21984 -8.72433,3.7555 -2.57014,2.8815 -3.92884,7.08611 -3.92884,12.76873 0,5.58022 1.45711,9.66264 4.21773,12.42206 2.41929,2.41935 5.45923,3.58217 9.41765,3.58217 3.40565,0 6.39193,-1.47835 9.18655,-4.15994 l -1.61776,-1.61776 c -2.06472,2.02798 -4.5772,3.23551 -7.51101,3.23551 -2.83603,0 -5.28051,-1.07188 -7.0488,-3.11996 -1.91291,-2.28577 -2.84496,-5.50586 -2.88885,-9.47543 l 0,-0.11555 0.98221,0 19.18197,0 0,-2.59997 c -2e-5,-4.97121 -1.14792,-8.67644 -3.35107,-11.26652 -2.05307,-2.32502 -4.57122,-3.40881 -7.91545,-3.40884 z m 106.19418,0 c -3.63051,3e-5 -6.46128,1.21984 -8.72433,3.7555 -2.57016,2.8815 -3.92884,7.08611 -3.92884,12.76873 0,5.5868 1.40382,9.66714 4.15995,12.42206 2.41423,2.41423 5.51699,3.58217 9.47543,3.58217 3.40564,0 6.39193,-1.47835 9.18655,-4.15994 l -1.61776,-1.61776 c -2.06468,2.02798 -4.57718,3.23551 -7.51101,3.23551 -2.83602,0 -5.28051,-1.07188 -7.0488,-3.11996 -1.91291,-2.28577 -2.84496,-5.50586 -2.88885,-9.47543 l 0,-0.12276 0.98221,0 19.18197,0 0,-2.59274 c -2e-5,-4.97121 -1.14792,-8.67645 -3.35107,-11.26652 -2.05307,-2.32502 -4.57122,-3.40881 -7.91545,-3.40885 l 0,-1e-5 z m -129.99831,0.0577 c -2.42126,4e-5 -4.47845,0.39447 -6.2977,2.36851 l -1.73331,1.84886 0,-1.96407 0,-1.73331 -3.35107,0 0,31.43071 3.35107,0 0,-24.43969 0,-0.28888 0.17324,-0.28889 c 1.89368,-2.79509 4.45131,-4.27548 7.33768,-4.2755 1.23534,2e-5 2.48569,0.43262 3.75551,0.92444 l 1.27109,-2.25331 c -1.42723,-0.735 -2.86496,-1.32883 -4.50661,-1.32887 l 1e-4,0 z m 60.83921,0 c -3.24042,4e-5 -6.03993,1.15471 -8.66656,3.58218 l -1.67553,1.55998 0,-2.25331 0,-2.31108 -3.40885,0 0,31.37293 3.40885,0 0,-23.86192 0,-0.40443 0.28888,-0.28889 c 2.90296,-3.12168 6.15598,-4.7377 9.64877,-4.73772 2.58846,2e-5 4.64429,0.84885 5.7777,2.59997 0.94377,1.46693 1.27106,3.50861 1.27109,6.23992 l 0,20.45307 3.40885,0 0,-20.45307 c -4e-5,-4.76199 -1.1091,-7.86936 -3.06218,-9.53321 -1.43093,-1.2519 -3.729,-1.96438 -6.99102,-1.96442 z m 104.74975,0 c -2.42124,4e-5 -4.72352,0.74458 -6.54927,2.72565 l -1.42396,1.53952 0,-2.01187 0,-1.73331 -3.40885,0 0,31.43071 3.40885,0 0,-24.43969 0,-0.28888 0.17324,-0.28889 c 1.88811,-2.78683 4.39355,-4.27548 7.2799,-4.2755 1.23534,2e-5 2.48569,0.43262 3.75551,0.92444 l 1.32887,-2.25331 c -1.44134,-0.73647 -2.91925,-1.32883 -4.56438,-1.32887 l 9e-5,0 z m -141.78483,2.42664 c 2.47558,10e-6 4.50308,1.04862 5.71993,2.94662 1.21078,1.88871 1.807,4.57907 2.02219,8.14656 l 0.0577,1.03999 -1.03999,0 -14.61759,0 -1.03998,0 0.0577,-1.03999 c 0.28221,-3.49448 1.11383,-6.2264 2.59997,-8.14656 1.48612,-1.92012 3.66962,-2.94661 6.23992,-2.94662 l 1.8e-4,0 z m 106.19418,0 c 2.47559,10e-6 4.50308,1.04862 5.71992,2.94662 1.21083,1.88873 1.80699,4.57907 2.0222,8.14656 l 0.0577,1.03999 -1.03999,0 -14.61759,0 -1.03999,0 0.0577,-1.03999 c 0.28221,-3.49448 1.11383,-6.2264 2.59997,-8.14656 1.48611,-1.92012 3.66962,-2.94661 6.23991,-2.94662 l 1.9e-4,0 z m -36.91952,0.2311 c 0.44421,-0.0503 0.80259,0 1.03998,0 3.57478,2e-5 6.54497,1.47388 8.551,4.39106 l 0.17324,0.28888 0,0.28889 0,17.56421 0,0.28889 -0.11555,0.23111 c -1.67308,2.74068 -4.4735,4.15996 -7.91545,4.15994 -2.78654,2e-5 -5.15127,-1.0293 -6.64436,-3.0044 -1.73183,-2.3106 -2.42664,-5.84129 -2.42664,-10.68875 0,-4.00788 0.54067,-7.15908 1.73331,-9.47543 1.19265,-2.31635 3.1501,-3.76601 5.60438,-4.0444 l 9e-5,0 z"
         id="path4136" />
    </g>
    <g
       id="g4358"
       transform="translate(33.869245,-16.314581)">
      <g
         transform="translate(-33.941125,-279.23759)"
         id="g4175">
        <path
           id="path4347"
           d="m 169.90005,353.02263 c -17.66973,19.84435 -24.42202,30.54015 -25.82633,46.56827 -0.0797,-0.0403 -0.14939,-0.0719 -0.23111,-0.11555 -6.49445,-3.72391 -11.68873,-11.28146 -14.79092,-19.00865 l -11.38207,4.44884 c 8.34282,25.20039 14.29208,36.30322 27.44409,45.52829 -0.0845,0.0557 -0.14163,0.11759 -0.23111,0.17324 -6.47223,3.76241 -15.61888,4.52808 -23.86191,3.35107 l -1.84887,12.0754 c 26.04716,5.38576 38.66855,5.83749 53.27042,-0.98221 0.006,0.10132 -0.004,0.18304 0,0.28888 0.0222,7.48632 -3.93015,15.75176 -9.07099,22.30194 l 9.53321,7.62657 c 17.64875,-19.82078 24.35331,-30.51408 25.76856,-46.51051 0.0817,0.0412 0.14717,0.0708 0.2311,0.11555 6.49446,3.72391 11.68873,11.28146 14.79092,19.00864 l 11.38208,-4.44883 c -8.34482,-25.20644 -14.28544,-36.3597 -27.44409,-45.58607 0.0856,-0.0566 0.14033,-0.11685 0.23111,-0.17324 6.47223,-3.7624 15.61888,-4.4703 23.86191,-3.29329 l 1.84886,-12.13318 c -26.0131,-5.37872 -38.63502,-5.80957 -53.21264,0.98221 -0.006,-0.0969 0.004,-0.18794 0,-0.28888 -0.0222,-7.48632 3.93015,-15.75174 9.071,-22.30192 l -9.53322,-7.62657 z m 0.98221,44.95051 c 8.92832,-0.29402 16.40354,6.72926 16.69757,15.65758 0.29402,8.92832 -6.72926,16.40353 -15.65758,16.69756 -8.92832,0.29402 -16.40354,-6.72926 -16.69756,-15.65757 -0.29403,-8.92832 6.72925,-16.40354 15.65757,-16.69757 z"
           style="font-size:161.45248413px;color:#000000;fill:url(#radialGradient4367);fill-opacity:1;fill-rule:nonzero;stroke:none;stroke-width:0.70866144;marker:none;visibility:visible;display:inline;overflow:visible;enable-background:accumulate;font-family:Lacuna Regular;-inkscape-font-specification:Lacuna Regular" />
        <path
           style="font-size:161.45248413px;font-style:normal;font-variant:normal;font-weight:normal;font-stretch:normal;text-indent:0;text-align:start;text-decoration:none;line-height:normal;letter-spacing:normal;word-spacing:normal;text-transform:none;direction:ltr;block-progression:tb;writing-mode:lr-tb;text-anchor:start;color:#000000;fill:url(#linearGradient4369);fill-opacity:1;fill-rule:nonzero;stroke:none;stroke-width:0.70866144;marker:none;visibility:visible;display:inline;overflow:visible;enable-background:accumulate;font-family:Lacuna Regular;-inkscape-font-specification:Lacuna Regular"
           d="m 169.76818,352.3612 a 0.65517514,0.65517514 0 0 0 -0.34666,0.23111 c -17.30997,19.44032 -24.20554,30.31508 -25.82633,45.93274 -6.02735,-3.72452 -10.95676,-10.92361 -13.92427,-18.31532 a 0.65517514,0.65517514 0 0 0 -0.86665,-0.34666 l -11.38208,4.44883 a 0.65517514,0.65517514 0 0 0 -0.34666,0.80888 c 8.16995,24.67822 14.24493,35.98144 26.9241,45.18163 -6.2459,3.39376 -14.96738,4.1342 -22.87971,3.00441 a 0.65517514,0.65517514 0 0 0 -0.7511,0.57777 l -1.84886,12.0754 a 0.65517514,0.65517514 0 0 0 0.51999,0.7511 c 25.49398,5.27137 38.35706,5.71508 52.69265,-0.69332 -0.20923,7.08346 -3.97762,14.93531 -8.89766,21.20417 a 0.65517514,0.65517514 0 0 0 0.11555,0.92443 l 9.53321,7.62657 a 0.65517514,0.65517514 0 0 0 0.92443,-0.0577 c 17.2659,-19.3908 24.06936,-30.32292 25.71078,-45.87496 6.04261,3.71844 11.00903,10.90989 13.98204,18.31532 a 0.65517514,0.65517514 0 0 0 0.80888,0.34666 l 11.38207,-4.44892 a 0.65517514,0.65517514 0 0 0 0.40444,-0.80888 c -8.17106,-24.68161 -14.24043,-36.03565 -26.92409,-45.23941 6.24323,-3.38714 14.9666,-4.07653 22.8797,-2.94663 a 0.65517514,0.65517514 0 0 0 0.69333,-0.57777 l 1.84886,-12.13318 a 0.65517514,0.65517514 0 0 0 -0.46222,-0.7511 c -25.43323,-5.25882 -38.34109,-5.66753 -52.63487,0.69332 0.19334,-7.096 3.90863,-14.97882 8.83989,-21.26194 a 0.65517514,0.65517514 0 0 0 -0.11556,-0.86666 l -9.53321,-7.62657 a 0.65517514,0.65517514 0 0 0 -0.51999,-0.17323 z m 0.23111,1.55998 8.551,6.87547 c -5.00571,6.5445 -8.86216,14.61387 -8.83989,22.1286 a 0.65517514,0.65517514 0 0 0 0,0.0577 c 0.002,0.0466 -0.009,0.1272 0,0.28888 a 0.65517514,0.65517514 0 0 0 0.92444,0.57777 c 14.30311,-6.6639 26.68247,-6.27083 52.17265,-1.03999 l -1.61776,10.91986 c -8.18127,-1.07003 -17.12364,-0.37376 -23.6308,3.40894 a 0.65517514,0.65517514 0 0 0 -0.0578,0 c -0.16826,0.10446 -0.21691,0.16399 -0.2311,0.17324 a 0.65517514,0.65517514 0 0 0 0,1.09776 c 12.91525,9.05571 18.76572,19.96303 26.98187,44.66164 l -10.22654,3.98662 c -3.16476,-7.61723 -8.26448,-14.97751 -14.79092,-18.71976 a 0.65517514,0.65517514 0 0 0 0,-0.0577 c -0.1029,-0.0549 -0.22024,-0.081 -0.28888,-0.11556 a 0.65517514,0.65517514 0 0 0 -0.92443,0.52 c -1.38916,15.70152 -7.91276,26.24229 -25.19079,45.70163 l -8.66655,-6.87547 c 5.02896,-6.55515 8.97778,-14.64796 8.95544,-22.18638 -0.002,-0.056 0.009,-0.12868 0,-0.28888 a 0.65517514,0.65517514 0 0 0 -0.98221,-0.57777 c -14.33857,6.69673 -26.66401,6.29044 -52.23044,1.03998 l 1.61776,-10.86208 c 8.19932,1.07887 17.16879,0.32344 23.68858,-3.46662 0.16842,-0.10465 0.27758,-0.16584 0.28889,-0.17324 a 0.65517514,0.65517514 0 0 0 0,-1.09776 C 132.5921,420.84285 126.73416,409.98558 118.51994,385.2941 l 10.22653,-4.04439 c 3.1632,7.63317 8.25162,15.0279 14.79092,18.77753 0.10226,0.0545 0.1656,0.14015 0.23111,0.17324 a 0.65517514,0.65517514 0 0 0 0.98221,-0.57777 c 1.37835,-15.73188 7.94817,-26.21807 25.24856,-45.70154 z m 0.86665,43.39055 c -9.28208,0.30567 -16.59884,8.10755 -16.29312,17.39089 0.30568,9.28207 8.10755,16.59883 17.39089,16.29312 9.28209,-0.30567 16.59884,-8.10755 16.29312,-17.39089 -0.30568,-9.28208 -8.10755,-16.59883 -17.39089,-16.29312 z m 0.0578,1.32887 c 8.5733,-0.28234 15.72186,6.44748 16.00424,15.02203 0.28233,8.5733 -6.44748,15.72186 -15.02203,16.00424 -8.5733,0.28234 -15.72186,-6.44748 -16.00424,-15.02203 -0.28233,-8.5733 6.44748,-15.72186 15.02203,-16.00424 z"
           id="path4116" />
        <path
           style="font-size:161.45248413px;font-style:normal;font-variant:normal;font-weight:normal;font-stretch:normal;text-indent:0;text-align:start;text-decoration:none;line-height:normal;letter-spacing:normal;word-spacing:normal;text-transform:none;direction:ltr;block-progression:tb;writing-mode:lr-tb;text-anchor:start;color:#000000;fill:#ffffff;fill-opacity:1;stroke:none;stroke-width:1.41732287;marker:none;visibility:visible;display:inline;overflow:visible;enable-background:accumulate;font-family:Lacuna Regular;-inkscape-font-specification:Lacuna Regular"
           d="m 177.79919,359.46778 a 1.3103503,1.3103503 0 0 0 -0.80888,0.51999 c -5.05359,6.68529 -8.96051,14.92513 -8.95544,22.8797 10e-6,0.0189 -6e-5,0.0388 0,0.0577 -2.9e-4,0.0298 -8.6e-4,0.0858 0,0.11555 -0.003,0.0841 -0.008,0.15549 0,0.28889 a 1.3301271,1.3301271 0 1 0 2.65774,-0.11556 c -0.004,-0.0618 -2.2e-4,-0.10871 0,-0.11555 1.5e-4,-0.004 -0.001,-0.0671 0,-0.11555 a 1.3103503,1.3103503 0 0 0 0,-0.0577 c -0.021,-7.09886 3.55209,-14.93605 8.37767,-21.31972 a 1.3103503,1.3103503 0 0 0 -1.27109,-2.13775 z m -49.45714,20.91528 a 1.3103503,1.3103503 0 0 0 -1.03999,1.84887 c 3.26994,7.72932 8.45062,15.27293 15.36869,19.23975 a 1.3103503,1.3103503 0 0 0 0.0578,0 1.3103503,1.3103503 0 0 0 0.0578,0.0577 1.3103503,1.3103503 0 0 0 0.23111,0.0577 1.3103503,1.3103503 0 0 0 0.11555,0.0577 1.3103503,1.3103503 0 0 0 1.03999,-2.36886 c -0.10567,-0.0534 -0.0933,-0.0728 -0.17333,-0.11555 a 1.3103503,1.3103503 0 0 0 -0.0578,0 c -0.0228,-0.0129 -0.035,-0.0446 -0.0578,-0.0577 a 1.3103503,1.3103503 0 0 0 -0.0578,0 c -6.09975,-3.54658 -10.99659,-10.58086 -14.09759,-17.91087 a 1.3103503,1.3103503 0 0 0 -1.38665,-0.80888 z m 79.96341,11.55541 c -4.17969,0.5365 -8.16136,1.69114 -11.61319,3.69773 a 1.3103503,1.3103503 0 0 0 -0.0578,0.0577 c -0.0764,0.0475 -0.10722,0.12166 -0.17333,0.17324 -0.12188,0.0952 -0.25178,0.16973 -0.34667,0.28889 -0.0732,0.0919 -0.14367,0.12553 -0.2311,0.34666 -0.0219,0.0553 -0.0355,0.11925 -0.0578,0.23111 -0.0111,0.056 -0.0578,0.23038 -0.0578,0.2311 -2e-5,7.3e-4 0.0576,0.40394 0.0578,0.40444 7e-5,2.6e-4 0.11544,0.28868 0.11555,0.28889 1.1e-4,2e-4 0.23097,0.34653 0.23111,0.34666 1.5e-4,1.3e-4 0.40426,0.23103 0.40444,0.23111 1.8e-4,7e-5 0.40422,0.11555 0.40444,0.11555 4.4e-4,4e-5 0.57719,-0.11537 0.57777,-0.11555 5.8e-4,-2e-4 0.23039,-0.11519 0.23111,-0.11556 a 1.3103503,1.3103503 0 0 0 0.17333,-0.17323 c 0.0213,-0.0129 0.0365,-0.0455 0.0578,-0.0577 0.002,-10e-4 0.0511,0.004 0.0578,0 6.1246,-3.51038 14.68372,-4.21988 22.59082,-3.23551 a 1.3401314,1.3401314 0 1 0 0.34666,-2.65775 c -4.16499,-0.51851 -8.53125,-0.59428 -12.71094,-0.0577 z m -19.93308,20.27973 a 1.3103503,1.3103503 0 0 0 -1.15554,1.38665 c 0.28841,8.75763 -6.55747,16.06263 -15.31091,16.3509 a 1.3301303,1.3301303 0 1 0 0.11555,2.65775 c 10.17519,-0.33509 18.18818,-8.94942 17.85311,-19.1242 a 1.3103503,1.3103503 0 0 0 -1.50221,-1.2711 z m 10.5732,14.32871 a 1.3103503,1.3103503 0 0 0 -0.40444,2.48441 c 0.10516,0.0531 0.0921,0.0723 0.17333,0.11555 a 1.3103503,1.3103503 0 0 0 0.0578,0 1.3103503,1.3103503 0 0 0 0.0578,0.0577 c 0.0131,0.007 0.0447,-0.007 0.0578,0 6.09976,3.54658 10.99659,10.58087 14.0976,17.91088 a 1.3200502,1.3200502 0 1 0 2.42663,-1.03999 c -3.26994,-7.72933 -8.45062,-15.27294 -15.36869,-19.23975 a 1.3103503,1.3103503 0 0 0 -0.0578,0 c -0.0348,-0.0185 -0.0291,-0.0433 -0.0578,-0.0577 a 1.3103503,1.3103503 0 0 0 -0.23111,-0.0577 1.3103503,1.3103503 0 0 0 -0.11555,-0.0577 1.3103503,1.3103503 0 0 0 -0.63555,-0.11574 z m -53.44375,3.35106 c -5.3e-4,6e-5 -0.40375,0.11519 -0.40444,0.11556 -6.9e-4,3.1e-4 -0.1815,0.0813 -0.23111,0.11555 a 1.3103503,1.3103503 0 0 0 -0.11555,0.17324 1.3103503,1.3103503 0 0 0 -0.0578,0.0577 1.3103503,1.3103503 0 0 0 -0.11555,0.0577 c -6.12109,3.48023 -14.65491,4.21223 -22.53305,3.23551 a 1.3401314,1.3401314 0 1 0 -0.34666,2.65775 c 8.33929,1.03388 17.42882,0.31061 24.32413,-3.69773 a 1.3103503,1.3103503 0 0 0 0.0578,-0.0577 c 0.0512,-0.0318 0.0692,-0.0821 0.11555,-0.11555 0.0354,-0.0255 0.0827,-0.0311 0.11556,-0.0577 0.10736,-0.0876 0.20294,-0.18118 0.28888,-0.28888 0.0733,-0.0919 0.13709,-0.15771 0.23111,-0.40444 0.0235,-0.0617 0.11528,-0.22931 0.11555,-0.23111 1.4e-4,-9e-4 4e-5,-0.28822 0,-0.28888 -3e-5,-6.7e-4 -0.11535,-0.51955 -0.11555,-0.52 -1e-4,-2.2e-4 -0.23096,-0.28871 -0.23111,-0.28888 -1.4e-4,-1.7e-4 -0.34647,-0.28879 -0.34666,-0.28889 -1.9e-4,-9e-5 -0.40421,-0.11555 -0.40444,-0.11555 -2.3e-4,-4e-5 -0.3464,-0.0579 -0.34666,-0.0577 z m 27.67519,13.75094 a 1.3103503,1.3103503 0 0 0 -1.09776,1.38665 c 0.003,0.0608 3e-4,0.10612 0,0.11555 -2e-4,0.006 9.3e-4,0.0667 0,0.11555 -1.8e-4,0.006 -1.8e-4,0.0518 0,0.0577 0.021,7.09886 -3.55208,14.93605 -8.37767,21.31972 a 1.317519,1.317519 0 0 0 2.07997,1.61776 c 5.05359,-6.68529 8.96051,-14.92513 8.95544,-22.8797 -1e-5,-0.0189 6e-5,-0.0388 0,-0.0577 2.9e-4,-0.0298 8.7e-4,-0.0858 0,-0.11555 0.003,-0.0799 0.007,-0.15919 0,-0.28889 a 1.3103503,1.3103503 0 0 0 -1.55998,-1.27109 z"
           id="path4099" />
      </g>
      <g
         transform="matrix(1.8488649,0,0,1.8488649,-295.2736,338.47636)"
         id="g4184"
         style="color:#000000;fill:#ffffff;fill-opacity:1;fill-rule:nonzero;stroke:none;stroke-width:1;marker:none;visibility:visible;display:inline;overflow:visible;enable-background:accumulate">
        <path
           style="font-size:29.42038345px;color:#000000;fill:#ffffff;fill-opacity:1;fill-rule:nonzero;stroke:none;stroke-width:1;marker:none;visibility:visible;display:inline;overflow:visible;enable-background:accumulate;font-family:Lacuna Regular;-inkscape-font-specification:Lacuna Regular"
           d="m 306.46875,-124 0,0.53125 0,3.65625 -1.9375,-0.0312 -0.53125,0 0,0.53125 0,2.25 0,0.53125 0.53125,0 1.9375,0 0,9.90625 c 0,1.97569 0.74502,3.58791 2.15625,4.6875 l 0,0.0312 c 1.21942,0.96109 2.78821,1.4375 4.65625,1.4375 l 0.53125,0 0,-0.53125 0,-2.4375 0,-0.53125 -0.53125,0 c -1.02287,1e-5 -1.6969,-0.25032 -2.15625,-0.71875 -0.48497,-0.49452 -0.71875,-1.08145 -0.71875,-1.875 l 0,-9.96875 2.875,0 0.53125,0 0,-0.53125 0,-2.25 0,-0.53125 -0.53125,0 -2.875,0 0,-3.625 0,-0.53125 -0.53125,0 -2.875,0 -0.53125,0 z m 56.21875,3.84375 c -2.21532,2e-5 -4.11951,0.82446 -5.53125,2.40625 -1.60889,1.80381 -2.37501,4.35177 -2.375,7.59375 -10e-6,3.20589 0.86048,5.73621 2.59375,7.46875 1.50882,1.50885 3.4869,2.25 5.84375,2.25 2.30604,0 4.40559,-0.97346 6.1875,-2.875 l 0.375,-0.375 -0.375,-0.375 -1.65625,-1.65625 -0.40625,-0.40625 -0.375,0.4375 c -1.00439,1.19274 -2.19777,1.75 -3.71875,1.75 -1.2821,0 -2.23021,-0.42091 -3,-1.3125 -0.74076,-0.88514 -1.12331,-2.21307 -1.21875,-3.90625 l 10.3125,0 0.53125,0 0,-0.53125 0,-1.46875 c -10e-6,-2.85711 -0.69815,-5.14054 -2.09375,-6.78125 -1.29657,-1.4683 -3.03973,-2.21873 -5.09375,-2.21875 z m -83.9375,0.0312 c -2.31984,2e-5 -4.22354,0.80257 -5.59375,2.34375 -1.54576,1.74189 -2.28125,4.27054 -2.28125,7.53125 0,3.23911 0.73316,5.74898 2.28125,7.46875 1.35148,1.54797 3.2572,2.3125 5.59375,2.3125 2.23766,0 4.12648,-0.73406 5.5,-2.21875 l 0,-0.0312 c 1.58514,-1.71927 2.37499,-4.25789 2.375,-7.53125 -10e-6,-3.28494 -0.74954,-5.82082 -2.34375,-7.5625 -1.37149,-1.51797 -3.27705,-2.31248 -5.53125,-2.3125 z m 17.90625,0 c -2.30019,2e-5 -4.17503,0.80527 -5.5,2.375 -1.4725,1.74215 -2.1875,4.27266 -2.1875,7.53125 0,3.2391 0.73316,5.74899 2.28125,7.46875 1.34671,1.54253 3.1984,2.3125 5.40625,2.3125 2.31064,0 4.29266,-0.8888 5.8125,-2.625 l 0.3125,-0.375 -0.34375,-0.34375 -1.65625,-1.65625 -0.40625,-0.40625 -0.375,0.4375 c -0.86357,1.06941 -1.92964,1.5625 -3.34375,1.5625 -1.2138,0 -2.02171,-0.45241 -2.625,-1.46875 -0.60329,-1.01634 -0.9375,-2.65303 -0.9375,-4.90625 0,-2.27627 0.33251,-3.93376 0.9375,-4.96875 0.60499,-1.03498 1.41436,-1.49999 2.625,-1.5 1.06358,2e-5 1.98684,0.40422 2.8125,1.25 l 0.375,0.375 0.375,-0.375 1.65625,-1.65625 0.34375,-0.34375 -0.3125,-0.375 c -1.36225,-1.50772 -3.16637,-2.31248 -5.25,-2.3125 z m 27.34375,0 c -1.93912,2e-5 -3.74162,0.42574 -5.40625,1.28125 l -0.4375,0.21875 0.1875,0.46875 0.9375,2.25 0.25,0.59375 0.53125,-0.375 c 0.99399,-0.66223 2.21932,-0.99998 3.65625,-1 1.01819,1e-5 1.66449,0.25791 2.09375,0.71875 0.42924,0.46084 0.6875,1.19366 0.6875,2.28125 l 0,1.625 c -0.93544,-0.29847 -1.94046,-0.53124 -3.3125,-0.53125 -1.84706,1e-5 -3.45856,0.53366 -4.78125,1.5625 -1.47749,1.13256 -2.25001,2.70928 -2.25,4.59375 -10e-6,1.95558 0.6601,3.53561 1.96875,4.59375 1.18198,0.95494 2.74827,1.40625 4.625,1.40625 1.58437,0 2.89268,-0.52896 4,-1.375 0.0925,0.29985 0.14371,0.65514 0.3125,0.875 l 0.15625,0.21875 0.25,0 3,0 0.75,0 -0.25,-0.71875 c -0.12631,-0.367 -0.23719,-0.63352 -0.3125,-0.84375 -0.0689,-0.19243 -0.0967,-0.33231 -0.0937,-0.3125 -6.6e-4,-0.005 6.5e-4,-0.0267 0,-0.0312 -0.0547,-0.37766 -0.0939,-1.2618 -0.0937,-2.625 l 0,-8.3125 c -10e-6,-2.09791 -0.51047,-3.775 -1.625,-4.90625 -1.11462,-1.1313 -2.7776,-1.65629 -4.84385,-1.6563 z m 20.40625,0 c -1.66228,2e-5 -3.18382,0.65516 -4.5625,1.65625 l 0,-0.8125 0,-0.53125 -0.53125,0 -2.875,0 -0.53125,0 0,0.53125 0,18.03125 0,0.53125 0.53125,0 2.875,0 0.53125,0 0,-0.53125 0,-13.1875 c 1.37993,-1.42349 2.80543,-2.125 4.3125,-2.125 1.18993,0 1.86332,0.30883 2.25,0.90625 0.31422,0.48841 0.53124,1.43439 0.53125,2.8125 l 0,11.59375 0,0.53125 0.53125,0 2.90625,0 0.53125,0 0,-0.53125 0,-11.59375 c -2e-5,-2.74023 -0.63489,-4.77918 -2.03125,-5.96875 -1.04378,-0.91318 -2.5533,-1.31248 -4.46875,-1.3125 z M 278.75,-116.75 c 1.29826,0 2.17026,0.46139 2.8125,1.5 0.64224,1.03861 1,2.71549 1,5 0,2.26146 -0.35947,3.91741 -1,4.9375 -0.64053,1.02008 -1.51124,1.46875 -2.8125,1.46875 -1.31343,0 -2.17487,-0.44936 -2.8125,-1.46875 -0.63763,-1.01939 -1,-2.67518 -1,-4.9375 0,-2.28537 0.36063,-3.96208 1,-5 0.63936,-1.03792 1.50203,-1.5 2.8125,-1.5 z m 83.9375,0.0625 c 1.06938,2e-5 1.74135,0.3491 2.21875,1.09375 0.4158,0.64861 0.66025,1.9012 0.8125,3.34375 l -6.625,0 c 0.18284,-1.44472 0.52785,-2.58278 1.0625,-3.28125 0.60966,-0.79647 1.40006,-1.15624 2.53125,-1.15625 z m -39,7.4375 c 1.22014,0 2.09104,0.18612 2.8125,0.46875 l 0,3.40625 c -1.03708,1.03931 -2.11178,1.5625 -3.28125,1.5625 -1.08256,0 -1.8054,-0.24387 -2.25,-0.625 -0.4446,-0.38112 -0.6875,-0.92751 -0.6875,-1.8125 0,-1.08192 0.28584,-1.77966 0.8125,-2.25 0.52667,-0.47035 1.3669,-0.75 2.59375,-0.75 z"
           id="path4186" />
        <path
           sodipodi:nodetypes="ccccscscsccccccccssssccscccccccccssssccscccccccccccccccccccscccccccccccccccsscccccccccccccccccsccccccccccccsccccccccccsccccccccccssssccc"
           style="font-size:29.42038345px;color:#000000;fill:#ffffff;fill-opacity:1;fill-rule:nonzero;stroke:none;stroke-width:1;marker:none;visibility:visible;display:inline;overflow:visible;enable-background:accumulate;font-family:Lacuna Regular;-inkscape-font-specification:Lacuna Regular"
           d="m 437.6875,-128.59375 0,10.71875 0,1.25 -0.90625,-0.875 c -1.05236,-1.03155 -2.45684,-1.56248 -4.28125,-1.5625 -1.57906,2e-5 -2.85155,0.61898 -4,1.9375 -1.35398,1.56504 -2.0625,3.74384 -2.0625,6.65625 0,3.23823 0.72683,5.59193 2.0625,7.09375 1.08751,1.23439 2.42584,1.8125 4.1875,1.8125 1.88364,0 3.21613,-0.48906 4.09375,-1.40625 l 0.90625,-0.9375 0,1.3125 0,0.8125 1.8125,0 0,-26.8125 -1.8125,0 z m -42.75,9.5 c -1.96364,2e-5 -3.49473,0.65978 -4.71875,2.03125 -1.39012,1.55852 -2.125,3.83268 -2.125,6.90625 0,3.01819 0.78811,5.22626 2.28125,6.71875 1.30853,1.30856 2.95275,1.9375 5.09375,1.9375 1.84202,0 3.45722,-0.7996 4.96875,-2.25 l -0.875,-0.875 c -1.11675,1.09688 -2.47568,1.75 -4.0625,1.75 -1.53393,0 -2.85608,-0.57975 -3.8125,-1.6875 -1.03464,-1.23631 -1.53876,-2.97797 -1.5625,-5.125 l 0,-0.0625 0.53125,0 10.375,0 0,-1.40625 c -10e-6,-2.68879 -0.62088,-4.69285 -1.8125,-6.09375 -1.11045,-1.25754 -2.47245,-1.84373 -4.28125,-1.84375 z m 57.4375,0 c -1.96364,2e-5 -3.49473,0.65978 -4.71875,2.03125 -1.39013,1.55852 -2.125,3.83268 -2.125,6.90625 0,3.02175 0.75929,5.22869 2.25,6.71875 1.30579,1.30579 2.98399,1.9375 5.125,1.9375 1.84202,0 3.45722,-0.7996 4.96875,-2.25 L 457,-104.625 c -1.11673,1.09688 -2.47567,1.75 -4.0625,1.75 -1.53392,0 -2.85608,-0.57975 -3.8125,-1.6875 -1.03464,-1.23631 -1.53876,-2.97797 -1.5625,-5.125 l 0,-0.0664 0.53125,0 10.375,0 0,-1.40234 c -10e-6,-2.68879 -0.62088,-4.69285 -1.8125,-6.09375 -1.11045,-1.25754 -2.47245,-1.84373 -4.28125,-1.84375 l 0,-1e-5 z m -70.3125,0.0312 c -1.30959,2e-5 -2.42227,0.21336 -3.40625,1.28106 l -0.9375,1 0,-1.06231 0,-0.9375 -1.8125,0 0,17 1.8125,0 0,-13.21875 0,-0.15625 0.0937,-0.15625 c 1.02424,-1.51179 2.40759,-2.31249 3.96875,-2.3125 0.66816,1e-5 1.34444,0.23399 2.03125,0.5 l 0.6875,-1.21875 c -0.77195,-0.39754 -1.54958,-0.71873 -2.4375,-0.71875 l 5e-5,0 z m 32.90625,0 c -1.75265,2e-5 -3.26683,0.62455 -4.6875,1.9375 l -0.90625,0.84375 0,-1.21875 0,-1.25 -1.84375,0 0,16.96875 1.84375,0 0,-12.90625 0,-0.21875 0.15625,-0.15625 c 1.57013,-1.68843 3.3296,-2.56249 5.21875,-2.5625 1.40003,1e-5 2.51197,0.45912 3.125,1.40625 0.51046,0.79342 0.68748,1.89771 0.6875,3.375 l 0,11.0625 1.84375,0 0,-11.0625 c -2e-5,-2.57563 -0.59988,-4.25632 -1.65625,-5.15625 -0.77395,-0.67712 -2.01691,-1.06248 -3.78125,-1.0625 z m 56.65625,0 c -1.30958,2e-5 -2.55482,0.40272 -3.54232,1.47423 l -0.77018,0.83268 0,-1.08816 0,-0.9375 -1.84375,0 0,17 1.84375,0 0,-13.21875 0,-0.15625 0.0937,-0.15625 c 1.02123,-1.50732 2.37635,-2.31249 3.9375,-2.3125 0.66816,1e-5 1.34444,0.23399 2.03125,0.5 l 0.71875,-1.21875 c -0.77958,-0.39834 -1.57894,-0.71873 -2.46875,-0.71875 l 5e-5,0 z m -76.6875,1.3125 c 1.33897,1e-5 2.43559,0.56717 3.09375,1.59375 0.65488,1.02155 0.97736,2.47669 1.09375,4.40625 l 0.0312,0.5625 -0.5625,0 -7.90625,0 -0.5625,0 0.0312,-0.5625 c 0.15264,-1.89007 0.60244,-3.36769 1.40625,-4.40625 0.8038,-1.03854 1.9848,-1.59374 3.375,-1.59375 l 10e-5,0 z m 57.4375,0 c 1.33898,1e-5 2.43559,0.56717 3.09375,1.59375 0.6549,1.02156 0.97735,2.47669 1.09375,4.40625 l 0.0312,0.5625 -0.5625,0 -7.90625,0 -0.5625,0 0.0312,-0.5625 c 0.15264,-1.89007 0.60244,-3.36769 1.40625,-4.40625 0.8038,-1.03854 1.9848,-1.59374 3.375,-1.59375 l 10e-5,0 z m -19.96875,0.125 c 0.24026,-0.0272 0.4341,0 0.5625,0 1.9335,1e-5 3.53999,0.79718 4.625,2.375 l 0.0937,0.15625 0,0.15625 0,9.5 0,0.15625 -0.0625,0.125 c -0.90492,1.48236 -2.41959,2.25001 -4.28125,2.25 -1.50716,1e-5 -2.78618,-0.55672 -3.59375,-1.625 -0.9367,-1.24974 -1.3125,-3.15939 -1.3125,-5.78125 0,-2.16775 0.29243,-3.87215 0.9375,-5.125 0.64507,-1.25285 1.7038,-2.03693 3.03125,-2.1875 l 5e-5,0 z"
           id="path4188" />
      </g>
    </g>
    <path
       style="font-size:161.45248412999999000px;fill:#000000;stroke:none;display:inline;font-family:Lacuna Regular;-inkscape-font-specification:Lacuna Regular;opacity:0.1"
       d="M 82 543.59375 C 51.271847 578.10356 24.070552 609.64775 0 639.15625 L 0 1002.5312 C 25.040147 982.25088 56.628602 969.64108 91.28125 968.5 C 152.6034 966.48073 206.66771 1000.9878 232.71875 1052.375 L 438.8125 1052.375 C 411.64406 1020.5035 380.87731 993.15385 344.15625 967.40625 C 344.96543 966.86742 345.48559 966.3144 346.34375 965.78125 C 407.5263 930.21495 493.98407 923.52997 571.90625 934.65625 L 589.40625 819.9375 C 343.50214 769.09217 224.17862 765.04651 86.375 829.25 C 86.31828 828.33305 86.41281 827.45381 86.375 826.5 C 86.165141 755.73135 123.528 677.60683 172.125 615.6875 L 82 543.59375 z "
       id="path4229" />
    <g
       id="g4301"
       transform="matrix(0.30594197,0,0,0.30594197,-24.579787,880.20783)">
      <path
         style="font-size:161.45248413px;fill:#000000;stroke:none;display:inline;font-family:Lacuna Regular;-inkscape-font-specification:Lacuna Regular"
         d="m 169.12653,414.9594 c -17.66973,19.84435 -24.42202,30.54014 -25.82633,46.56827 -0.0797,-0.0403 -0.14939,-0.0719 -0.23111,-0.11556 -6.49445,-3.72391 -11.68872,-11.28146 -14.79091,-19.00864 l -11.38208,4.44883 c 8.34282,25.2004 14.29208,36.30322 27.44409,45.5283 -0.0845,0.0557 -0.14162,0.11759 -0.23111,0.17324 -6.47223,3.7624 -15.61888,4.52807 -23.86191,3.35107 l -1.84887,12.07539 c 26.04716,5.38577 38.66855,5.8375 53.27042,-0.9822 0.006,0.10131 -0.004,0.18303 0,0.28888 0.0222,7.48631 -3.93015,15.75176 -9.07099,22.30193 l 9.53321,7.62657 c 17.64876,-19.82077 24.35332,-30.51407 25.76857,-46.51051 0.0817,0.0412 0.14717,0.0708 0.23111,0.11556 6.49445,3.72391 11.68873,11.28146 14.79092,19.00864 l 11.38207,-4.44883 c -8.34481,-25.20645 -14.28544,-36.3597 -27.44408,-45.58608 0.0856,-0.0566 0.14032,-0.11685 0.2311,-0.17324 6.47223,-3.7624 15.61888,-4.47029 23.86192,-3.29329 l 1.84886,-12.13317 c -26.0131,-5.37872 -38.63503,-5.80958 -53.21266,0.98221 -0.006,-0.0969 0.004,-0.18794 0,-0.28889 -0.0222,-7.48631 3.93015,-15.75174 9.07101,-22.30191 l -9.53323,-7.62657 z m 0.98221,44.95051 c 8.92834,-0.29403 16.40356,6.72926 16.69758,15.65757 0.29403,8.92832 -6.72925,16.40354 -15.65759,16.69757 -8.92832,0.29402 -16.40354,-6.72926 -16.69756,-15.65758 -0.29403,-8.92832 6.72926,-16.40354 15.65757,-16.69756 z"
         id="path4303" />
      <path
         id="path4305"
         d="m 305.28684,450.4547 0,0.98221 0,6.75991 -3.58217,-0.0577 -0.98221,0 0,0.98221 0,4.15995 0,0.9822 0.98221,0 3.58217,0 0,18.31532 c 0,3.65279 1.37745,6.63356 3.98662,8.66656 l 0,0.0577 c 2.25454,1.77693 5.15502,2.65774 8.60878,2.65774 l 0.98221,0 0,-0.9822 0,-4.50661 0,-0.98221 -0.98221,0 c -1.89115,2e-5 -3.13734,-0.46281 -3.98662,-1.32887 -0.89664,-0.9143 -1.32887,-1.99946 -1.32887,-3.46663 l 0,-18.43087 5.31549,0 0.98221,0 0,-0.98221 0,-4.15994 0,-0.98221 -0.98221,0 -5.31549,0 0,-6.70214 0,-0.98221 -0.98221,0 -5.31549,0 -0.98221,0 z m 103.94088,7.10658 c -4.09583,3e-5 -7.61642,1.52431 -10.22654,4.44883 -2.97462,3.335 -4.39107,8.04583 -4.39105,14.03982 -2e-5,5.92725 1.59091,10.60547 4.79549,13.80871 2.78961,2.78966 6.44681,4.15994 10.80431,4.15994 4.26355,0 8.14534,-1.79979 11.43985,-5.31548 l 0.69332,-0.69333 -0.69332,-0.69332 -3.06218,-3.06219 -0.7511,-0.7511 -0.69333,0.80888 c -1.85698,2.20522 -4.06338,3.23551 -6.87547,3.23551 -2.37042,0 -4.12335,-0.7782 -5.54659,-2.42663 -1.36956,-1.63651 -2.07685,-4.09167 -2.2533,-7.22213 l 19.06642,0 0.9822,0 0,-0.98221 0,-2.71552 c -1e-5,-5.28241 -1.29078,-9.50416 -3.87106,-12.53761 -2.39718,-2.71469 -5.62005,-4.10214 -9.41765,-4.10217 z m -155.1891,0.0577 c -4.28907,4e-5 -7.80875,1.48384 -10.34209,4.33328 -2.8579,3.22052 -4.21772,7.89565 -4.21772,13.92426 0,5.98868 1.35551,10.62909 4.21772,13.80871 2.49871,2.86199 6.02213,4.2755 10.34209,4.2755 4.13713,0 7.6293,-1.35718 10.16876,-4.10217 l 0,-0.0577 c 2.93071,-3.1787 4.39103,-7.87226 4.39105,-13.92427 -2e-5,-6.07341 -1.3858,-10.76191 -4.33328,-13.98204 -2.53569,-2.80652 -6.05882,-4.27546 -10.22653,-4.2755 z m 33.10624,0 c -4.25274,4e-5 -7.71907,1.48884 -10.16876,4.39106 -2.72245,3.221 -4.04439,7.89957 -4.04439,13.92426 0,5.98866 1.35551,10.62911 4.21772,13.80871 2.48989,2.85193 5.91341,4.2755 9.99543,4.2755 4.27206,0 7.93655,-1.64327 10.74653,-4.85327 l 0.57777,-0.69333 -0.63555,-0.63554 -3.06218,-3.06219 -0.75111,-0.7511 -0.69332,0.80888 c -1.59662,1.9772 -3.56764,2.88885 -6.18214,2.88885 -2.24415,0 -3.73787,-0.83644 -4.85327,-2.71552 -1.1154,-1.87907 -1.73331,-4.90509 -1.73331,-9.07099 0,-4.20852 0.61476,-7.27299 1.73331,-9.18655 1.11854,-1.91354 2.61496,-2.77328 4.85327,-2.7733 1.96641,4e-5 3.6734,0.74735 5.19993,2.31109 l 0.69332,0.69332 0.69333,-0.69332 3.06218,-3.06219 0.63555,-0.63554 -0.57777,-0.69333 c -2.51862,-2.78757 -5.85419,-4.27546 -9.70654,-4.2755 z m 50.5549,0 c -3.58517,4e-5 -6.91775,0.78714 -9.99543,2.36886 l -0.80888,0.40444 0.34667,0.86665 1.73331,4.15995 0.46221,1.09776 0.98221,-0.69332 c 1.83776,-1.22437 4.10322,-1.84883 6.75991,-1.84887 1.8825,2e-5 3.07742,0.47685 3.87107,1.32888 0.7936,0.85203 1.27109,2.20691 1.27109,4.21772 l 0,3.0044 c -1.7295,-0.55183 -3.58765,-0.98219 -6.12437,-0.9822 -3.41496,10e-6 -6.39441,0.98666 -8.83988,2.88885 -2.73168,2.09395 -4.15996,5.00909 -4.15995,8.49322 -1e-5,3.6156 1.22044,6.53686 3.63996,8.49322 2.18532,1.76556 5.08118,2.59997 8.551,2.59997 2.92928,0 5.34817,-0.97798 7.39546,-2.54219 0.17102,0.55438 0.2657,1.21127 0.57777,1.61776 l 0.28888,0.40444 0.46222,0 5.54659,0 1.38665,0 -0.46222,-1.32888 c -0.23353,-0.67853 -0.43853,-1.17129 -0.57777,-1.55998 -0.12738,-0.35577 -0.17878,-0.61439 -0.17323,-0.57777 -0.001,-0.009 10e-4,-0.0494 0,-0.0577 -0.10114,-0.69824 -0.17361,-2.3329 -0.17324,-4.85327 l 0,-15.36869 c -2e-5,-3.87875 -0.94379,-6.97947 -3.00441,-9.07099 -2.06078,-2.09162 -5.13541,-3.06226 -8.95562,-3.06228 z m 37.7284,0 c -3.07333,4e-5 -5.88646,1.2113 -8.43545,3.06218 l 0,-1.5022 0,-0.98221 -0.98221,0 -5.31549,0 -0.9822,0 0,0.98221 0,33.33735 0,0.98221 0.9822,0 5.31549,0 0.98221,0 0,-0.98221 0,-24.38191 c 2.55131,-2.63184 5.18686,-3.92884 7.97323,-3.92884 2.20002,0 3.44503,0.57099 4.15995,1.67554 0.58095,0.903 0.98219,2.65199 0.98221,5.19993 l 0,21.43528 0,0.98221 0.98221,0 5.37326,0 0.98221,0 0,-0.98221 0,-21.43528 c -4e-5,-5.06632 -1.17383,-8.83606 -3.75551,-11.03541 -1.92981,-1.68835 -4.7207,-2.4266 -8.26211,-2.42664 z m -121.38954,6.24001 c 2.40031,0 4.01252,0.85305 5.19993,2.7733 1.18742,1.92025 1.84887,5.02057 1.84887,9.24432 0,4.18114 -0.66461,7.24277 -1.84887,9.12878 -1.18425,1.88599 -2.79408,2.71552 -5.19993,2.71552 -2.42835,0 -4.02104,-0.83081 -5.19993,-2.71552 -1.17889,-1.88472 -1.84887,-4.94605 -1.84887,-9.12878 0,-4.22534 0.66676,-7.32535 1.84887,-9.24432 1.18209,-1.91897 2.77705,-2.7733 5.19993,-2.7733 z m 155.1891,0.11556 c 1.97714,3e-5 3.21952,0.64544 4.10217,2.02219 0.76876,1.1992 1.22071,3.51506 1.5022,6.18214 l -12.24873,0 c 0.33805,-2.67109 0.97592,-4.77521 1.96442,-6.06658 1.12718,-1.47257 2.58852,-2.13773 4.67994,-2.13775 z m -72.10573,13.75093 c 2.25587,0 3.86605,0.34411 5.19993,0.86666 l 0,6.29769 c -1.91742,1.92154 -3.9044,2.88885 -6.06659,2.88885 -2.00151,0 -3.33794,-0.45088 -4.15994,-1.15554 -0.82201,-0.70464 -1.2711,-1.71484 -1.2711,-3.35107 0,-2.00032 0.52848,-3.29035 1.5022,-4.15994 0.97375,-0.86962 2.52722,-1.38665 4.7955,-1.38665 z"
         style="font-size:29.42038345px;fill:#000000;fill-opacity:1;stroke:none;font-family:Lacuna Regular;-inkscape-font-specification:Lacuna Regular" />
      <path
         id="path4307"
         d="m 547.89259,441.96148 0,19.81752 0,2.31108 -1.67554,-1.61776 c -1.94567,-1.90719 -4.54236,-2.88881 -7.91545,-2.88885 -2.91947,4e-5 -5.27213,1.14441 -7.39546,3.58218 -2.50333,2.89355 -3.81328,6.92185 -3.81328,12.30651 0,5.98705 1.34381,10.33872 3.81328,13.11538 2.01066,2.28222 4.48505,3.35107 7.74212,3.35107 3.4826,0 5.94619,-0.90421 7.56879,-2.59997 l 1.67554,-1.73331 0,2.42664 0,1.5022 3.35106,0 0,-49.57269 -3.35106,0 z m -79.03898,17.56422 c -3.6305,3e-5 -6.46128,1.21984 -8.72433,3.7555 -2.57014,2.8815 -3.92884,7.08611 -3.92884,12.76873 0,5.58022 1.45711,9.66264 4.21773,12.42206 2.41929,2.41935 5.45923,3.58217 9.41765,3.58217 3.40565,0 6.39193,-1.47835 9.18655,-4.15994 l -1.61776,-1.61776 c -2.06472,2.02798 -4.5772,3.23551 -7.51101,3.23551 -2.83603,0 -5.28051,-1.07188 -7.0488,-3.11996 -1.91291,-2.28577 -2.84496,-5.50586 -2.88885,-9.47543 l 0,-0.11555 0.98221,0 19.18197,0 0,-2.59997 c -2e-5,-4.97121 -1.14792,-8.67644 -3.35107,-11.26652 -2.05307,-2.32502 -4.57122,-3.40881 -7.91545,-3.40884 z m 106.19418,0 c -3.63051,3e-5 -6.46128,1.21984 -8.72433,3.7555 -2.57016,2.8815 -3.92884,7.08611 -3.92884,12.76873 0,5.5868 1.40382,9.66714 4.15995,12.42206 2.41423,2.41423 5.51699,3.58217 9.47543,3.58217 3.40564,0 6.39193,-1.47835 9.18655,-4.15994 l -1.61776,-1.61776 c -2.06468,2.02798 -4.57718,3.23551 -7.51101,3.23551 -2.83602,0 -5.28051,-1.07188 -7.0488,-3.11996 -1.91291,-2.28577 -2.84496,-5.50586 -2.88885,-9.47543 l 0,-0.12276 0.98221,0 19.18197,0 0,-2.59274 c -2e-5,-4.97121 -1.14792,-8.67645 -3.35107,-11.26652 -2.05307,-2.32502 -4.57122,-3.40881 -7.91545,-3.40885 l 0,-1e-5 z m -129.99831,0.0577 c -2.42126,4e-5 -4.47845,0.39447 -6.2977,2.36851 l -1.73331,1.84886 0,-1.96407 0,-1.73331 -3.35107,0 0,31.43071 3.35107,0 0,-24.43969 0,-0.28888 0.17324,-0.28889 c 1.89368,-2.79509 4.45131,-4.27548 7.33768,-4.2755 1.23534,2e-5 2.48569,0.43262 3.75551,0.92444 l 1.27109,-2.25331 c -1.42723,-0.735 -2.86496,-1.32883 -4.50661,-1.32887 l 1e-4,0 z m 60.83921,0 c -3.24042,4e-5 -6.03993,1.15471 -8.66656,3.58218 l -1.67553,1.55998 0,-2.25331 0,-2.31108 -3.40885,0 0,31.37293 3.40885,0 0,-23.86192 0,-0.40443 0.28888,-0.28889 c 2.90296,-3.12168 6.15598,-4.7377 9.64877,-4.73772 2.58846,2e-5 4.64429,0.84885 5.7777,2.59997 0.94377,1.46693 1.27106,3.50861 1.27109,6.23992 l 0,20.45307 3.40885,0 0,-20.45307 c -4e-5,-4.76199 -1.1091,-7.86936 -3.06218,-9.53321 -1.43093,-1.2519 -3.729,-1.96438 -6.99102,-1.96442 z m 104.74975,0 c -2.42124,4e-5 -4.72352,0.74458 -6.54927,2.72565 l -1.42396,1.53952 0,-2.01187 0,-1.73331 -3.40885,0 0,31.43071 3.40885,0 0,-24.43969 0,-0.28888 0.17324,-0.28889 c 1.88811,-2.78683 4.39355,-4.27548 7.2799,-4.2755 1.23534,2e-5 2.48569,0.43262 3.75551,0.92444 l 1.32887,-2.25331 c -1.44134,-0.73647 -2.91925,-1.32883 -4.56438,-1.32887 l 9e-5,0 z m -141.78483,2.42664 c 2.47558,10e-6 4.50308,1.04862 5.71993,2.94662 1.21078,1.88871 1.807,4.57907 2.02219,8.14656 l 0.0577,1.03999 -1.03999,0 -14.61759,0 -1.03998,0 0.0577,-1.03999 c 0.28221,-3.49448 1.11383,-6.2264 2.59997,-8.14656 1.48612,-1.92012 3.66962,-2.94661 6.23992,-2.94662 l 1.8e-4,0 z m 106.19418,0 c 2.47559,10e-6 4.50308,1.04862 5.71992,2.94662 1.21083,1.88873 1.80699,4.57907 2.0222,8.14656 l 0.0577,1.03999 -1.03999,0 -14.61759,0 -1.03999,0 0.0577,-1.03999 c 0.28221,-3.49448 1.11383,-6.2264 2.59997,-8.14656 1.48611,-1.92012 3.66962,-2.94661 6.23991,-2.94662 l 1.9e-4,0 z m -36.91952,0.2311 c 0.44421,-0.0503 0.80259,0 1.03998,0 3.57478,2e-5 6.54497,1.47388 8.551,4.39106 l 0.17324,0.28888 0,0.28889 0,17.56421 0,0.28889 -0.11555,0.23111 c -1.67308,2.74068 -4.4735,4.15996 -7.91545,4.15994 -2.78654,2e-5 -5.15127,-1.0293 -6.64436,-3.0044 -1.73183,-2.3106 -2.42664,-5.84129 -2.42664,-10.68875 0,-4.00788 0.54067,-7.15908 1.73331,-9.47543 1.19265,-2.31635 3.1501,-3.76601 5.60438,-4.0444 l 9e-5,0 z"
         style="font-size:29.42038345px;fill:#000000;stroke:none;font-family:Lacuna Regular;-inkscape-font-specification:Lacuna Regular"
         sodipodi:nodetypes="ccccscscsccccccccssssccscccccccccssssccscccccccccccccccccccscccccccccccccccsscccccccccccccccccsccccccccccccsccccccccccsccccccccccssssccc" />
    </g>
    <path
       style="font-size:161.45248412999999000px;fill:none;stroke:#000000;display:inline;font-family:Lacuna Regular;-inkscape-font-specification:Lacuna Regular;opacity:0.10000000000000001;color:#000000;fill-opacity:1;fill-rule:nonzero;marker:none;visibility:visible;overflow:visible;enable-background:accumulate;stroke-width:3.54330709;stroke-miterlimit:4;stroke-dasharray:none"
       d="M 206.9375 564.03125 C 114.09277 618.76457 48.535132 662.37434 0 707.625 L 0 922.40625 C 30.083193 903.07073 68.032055 896.27831 105.09375 906.84375 C 168.88511 925.02921 207.55156 988.43394 196.5625 1052.375 L 357.125 1052.375 C 344.27295 1024.0855 328.15972 997.63393 307.96875 971 C 308.75559 970.77643 309.30037 970.45643 310.125 970.25 C 368.28761 957.49167 439.27876 974.35872 498.84375 1003.3125 L 542.34375 915.9375 C 358.41696 811.96129 263.88044 778.00467 136.96875 794 C 137.15897 793.25157 137.4723 792.58671 137.6875 791.8125 C 155.71972 735.06294 205.73626 682.07648 260.59375 644.96875 L 206.9375 564.03125 z "
       id="path4226-8" />
  </g>
</svg>
