<?xml version="1.0" encoding="UTF-8"?>
<svg viewBox="100 380 140 140" xmlns="http://www.w3.org/2000/svg">
  <path
    d="m 169.12653,414.9594 c -17.66973,19.84435 -24.42202,30.54014 -25.82633,46.56827 -0.0797,-0.0403 -0.14939,-0.0719 -0.23111,-0.11556 -6.49445,-3.72391 -11.68872,-11.28146 -14.79091,-19.00864 l -11.38208,4.44883 c 8.34282,25.2004 14.29208,36.30322 27.44409,45.5283 -0.0845,0.0557 -0.14162,0.11759 -0.23111,0.17324 -6.47223,3.7624 -15.61888,4.52807 -23.86191,3.35107 l -1.84887,12.07539 c 26.04716,5.38577 38.66855,5.8375 53.27042,-0.9822 0.006,0.10131 -0.004,0.18303 0,0.28888 0.0222,7.48631 -3.93015,15.75176 -9.07099,22.30193 l 9.53321,7.62657 c 17.64876,-19.82077 24.35332,-30.51407 25.76857,-46.51051 0.0817,0.0412 0.14717,0.0708 0.23111,0.11556 6.49445,3.72391 11.68873,11.28146 14.79092,19.00864 l 11.38207,-4.44883 c -8.34481,-25.20645 -14.28544,-36.3597 -27.44408,-45.58608 0.0856,-0.0566 0.14032,-0.11685 0.2311,-0.17324 6.47223,-3.7624 15.61888,-4.47029 23.86192,-3.29329 l 1.84886,-12.13317 c -26.0131,-5.37872 -38.63503,-5.80958 -53.21266,0.98221 -0.006,-0.0969 0.004,-0.18794 0,-0.28889 -0.0222,-7.48631 3.93015,-15.75174 9.07101,-22.30191 l -9.53323,-7.62657 z m 0.98221,44.95051 c 8.92834,-0.29403 16.40356,6.72926 16.69758,15.65757 0.29403,8.92832 -6.72925,16.40354 -15.65759,16.69757 -8.92832,0.29402 -16.40354,-6.72926 -16.69756,-15.65758 -0.29403,-8.92832 6.72926,-16.40354 15.65757,-16.69756 z"
    fill="currentColor"
    stroke="none" />
</svg>